<svg xmlns="http://www.w3.org/2000/svg" viewBox="0 0 1000 500" width="1000" height="500">
  <rect width="1000" height="500" fill="#0F172A" rx="12"/>
  <path d="M656.4,166.8L661.0,167.4L665.0,165.3L669.2,162.7L673.3,163.3L677.7,162.2L682.3,160.7L683.6,164.3L689.0,162.7L683.6,164.8L681.7,169.0L678.1,172.8L673.2,176.3L669.6,180.3L664.5,181.0L659.8,181.6L655.6,180.4L657.7,176.8L654.7,173.0L656.4,166.8Z M541.7,263.7L543.7,267.6L548.6,268.6L552.6,266.2L555.7,270.8L556.6,275.9L561.1,275.5L561.2,279.3L556.1,280.1L555.9,287.5L554.6,291.8L548.4,291.5L536.3,290.5L531.2,289.9L531.0,284.7L532.6,280.7L535.1,276.4L533.5,272.8L533.1,267.7L532.5,263.9L541.7,263.7Z M531.8,263.3L531.8,263.3Z M552.6,152.3L552.7,156.4L549.9,152.7L552.6,152.3Z M631.8,193.4L636.5,193.6L641.7,190.6L641.9,194.2L632.9,196.3L631.8,193.4Z M332.6,378.8L327.3,378.0L324.6,372.8L330.2,377.1L332.6,378.8Z M334.0,301.5L339.4,301.4L344.5,305.7L349.7,307.8L350.2,313.3L355.6,314.3L360.0,312.1L356.1,317.3L352.1,322.4L351.4,327.1L353.8,332.3L354.9,336.1L348.6,340.3L343.5,340.8L341.2,344.9L337.0,346.1L335.5,350.0L333.0,353.8L328.0,356.3L332.3,360.2L328.4,363.6L324.4,367.3L324.1,370.8L316.2,371.4L312.6,367.6L314.3,364.1L316.2,359.4L316.9,354.9L316.2,351.3L316.2,345.3L317.5,340.8L318.2,335.5L321.6,329.8L319.7,323.2L321.1,318.5L323.7,314.2L325.2,307.2L328.8,303.6L334.0,301.5Z M611.4,154.1L615.5,154.4L618.8,157.9L614.5,157.3L611.4,154.1Z M347.8,436.8L340.9,438.7L335.2,438.8L330.6,437.3L336.3,437.4L341.9,437.6L347.8,436.8Z M93.1,435.5L88.2,435.8L83.4,434.2L87.9,432.9L92.4,434.4L93.1,435.5Z M384.6,432.1L388.9,434.5L381.2,438.1L376.3,438.6L371.0,439.1L364.9,438.9L369.7,435.8L374.0,433.1L380.8,431.6L384.6,432.1Z M190.2,421.5L196.6,421.5L192.7,422.9L186.6,421.9L190.2,421.5Z M179.1,421.5L183.0,422.4L178.2,422.1L179.1,421.5Z M247.0,417.8L252.7,417.9L245.9,419.0L239.8,418.7L247.0,417.8Z M325.1,415.6L321.2,418.7L315.0,419.1L310.4,418.9L315.8,416.1L316.7,412.2L321.8,411.6L325.1,415.6Z M350.2,399.7L345.1,400.1L340.2,401.9L335.7,406.0L333.1,409.5L338.5,411.5L342.8,415.9L344.1,419.8L341.6,423.7L337.1,424.8L331.7,426.5L325.1,427.4L319.6,428.8L315.5,428.9L311.0,428.8L306.9,429.0L302.6,429.0L307.3,430.3L311.8,431.8L304.5,432.3L300.6,434.8L307.4,437.3L312.8,437.6L317.4,438.3L325.7,439.7L332.1,440.1L338.3,440.7L342.7,441.4L347.5,442.2L354.3,443.4L358.5,442.7L363.0,441.9L368.3,441.3L372.8,440.7L379.2,440.7L385.4,441.0L390.6,441.5L395.8,439.8L402.3,439.8L407.3,439.3L412.1,438.8L417.4,438.5L423.1,438.0L427.0,437.5L419.2,435.0L413.9,435.4L408.9,435.4L413.4,431.7L417.7,431.2L423.9,429.8L429.7,428.5L434.9,428.0L438.9,427.9L445.8,427.1L451.7,426.0L457.5,424.5L460.5,420.7L466.0,419.7L470.6,418.0L476.7,416.4L481.0,417.3L485.2,415.7L492.2,416.3L498.3,416.2L502.2,416.4L507.7,415.6L513.2,414.8L518.2,413.9L524.3,413.4L530.5,414.8L537.7,413.4L543.5,413.1L549.2,413.1L554.8,413.5L560.5,414.5L566.4,414.5L571.8,414.1L576.7,413.2L581.8,412.5L586.6,409.8L592.4,411.6L596.9,412.2L601.4,412.3L607.2,410.1L612.7,409.3L616.8,408.2L621.2,408.0L625.2,406.5L629.7,406.0L634.5,404.1L639.4,403.6L644.0,403.9L648.6,406.4L653.2,407.3L659.4,408.7L663.7,407.3L668.6,408.1L673.5,408.5L678.2,410.9L673.3,414.0L673.6,417.7L678.6,418.6L682.9,417.3L686.8,415.0L693.3,412.7L698.4,412.1L704.7,408.8L709.7,407.2L714.1,407.1L718.9,406.5L723.6,406.0L729.2,406.7L734.1,406.6L739.1,406.8L744.8,407.2L749.8,406.9L754.8,406.9L759.6,404.7L764.4,403.3L771.4,406.2L776.2,406.2L781.7,405.6L785.6,404.3L790.3,403.7L795.4,405.6L800.0,406.1L806.2,407.0L810.9,406.0L814.9,405.1L819.9,405.7L824.6,405.3L829.2,405.8L834.2,405.0L839.7,404.9L844.4,404.5L849.1,405.8L854.2,406.1L859.8,405.9L865.6,405.9L871.8,406.1L877.5,409.0L883.7,410.0L889.7,410.7L894.3,410.0L898.5,411.3L903.8,412.1L908.0,413.3L912.9,414.7L918.7,415.0L924.5,415.1L930.4,415.6L935.7,416.6L933.8,420.9L929.3,422.2L924.5,423.6L919.7,426.1L917.8,429.8L925.8,432.7L918.3,434.6L913.4,434.7L908.3,438.9L913.1,440.6L918.4,442.3L925.8,443.7L931.6,444.5L940.3,446.1L949.7,446.4L955.6,447.1L960.0,447.7L40.1,447.7L47.0,447.1L54.4,447.2L65.7,445.7L73.2,447.3L80.4,447.9L86.2,448.7L96.0,449.2L103.4,448.6L114.3,449.0L120.4,449.8L127.2,449.1L134.3,448.4L124.8,447.2L116.5,446.7L107.5,445.3L109.4,441.4L105.1,440.8L99.2,439.2L105.4,439.4L111.3,439.0L119.6,439.1L123.8,438.2L117.9,435.2L112.6,435.0L108.0,434.7L103.0,434.5L98.1,432.9L103.0,430.1L107.1,429.8L113.3,430.6L119.9,429.5L126.6,428.4L131.2,426.3L135.1,425.8L141.7,425.2L148.6,424.4L154.5,423.4L162.0,423.4L168.9,423.7L175.7,423.6L183.1,423.8L190.6,423.9L196.7,423.1L203.0,423.2L208.8,422.0L213.0,424.3L218.7,424.5L225.1,425.4L232.0,424.9L235.8,425.0L242.8,425.7L237.9,422.9L243.6,419.8L249.3,420.8L253.8,421.8L260.6,421.0L266.4,421.3L272.0,419.3L277.0,420.8L282.3,421.5L288.7,421.8L293.8,421.5L300.9,421.3L305.2,422.6L311.3,421.9L317.0,420.9L323.8,420.4L327.8,419.1L326.4,415.3L325.1,411.8L327.2,408.0L331.2,404.5L336.0,402.1L341.4,400.7L347.0,399.2L352.3,397.6L350.2,399.7Z M676.2,363.5L680.2,364.5L675.7,366.1L676.2,363.5Z M871.6,345.2L875.4,345.7L878.0,350.8L873.2,351.6L871.3,348.1L871.6,345.2Z M866.9,282.1L871.5,285.0L872.2,289.2L874.1,294.2L878.7,296.6L882.5,302.1L887.4,306.2L891.3,310.8L892.5,315.6L891.2,320.8L889.6,326.0L885.9,330.1L883.5,335.0L879.0,338.2L873.9,341.1L869.2,338.9L864.8,339.9L859.4,338.7L856.7,334.3L853.2,330.2L848.5,329.6L844.0,327.5L839.9,324.7L835.6,323.5L831.0,323.7L824.8,325.3L819.7,326.4L813.9,329.1L810.0,328.9L804.9,330.5L799.8,331.7L795.3,330.2L795.9,325.1L794.3,321.4L793.0,317.2L790.0,311.9L790.6,308.3L790.9,303.8L795.1,300.2L799.4,298.1L803.7,297.3L808.9,295.9L812.5,291.5L816.5,289.8L817.9,286.3L822.3,283.5L826.6,283.3L831.3,284.9L833.1,281.2L838.8,278.3L843.4,278.1L848.2,278.1L847.8,282.0L848.3,286.3L853.4,289.2L858.3,291.3L861.4,287.0L862.0,283.3L862.5,279.7L863.3,275.8L866.8,279.9L866.9,282.1Z M543.4,137.7L538.7,141.1L531.6,140.9L526.7,140.6L531.0,138.7L536.6,136.7L541.0,136.3L543.4,137.7Z M615.0,157.3L615.0,157.3Z M621.1,153.8L625.5,153.7L626.2,158.1L621.9,157.8L617.6,157.5L614.9,153.8L618.8,154.2L621.1,153.8Z M575.0,260.5L574.2,256.6L578.0,256.6L576.0,260.4L575.0,260.5Z M508.5,130.2L512.7,129.9L514.5,134.4L509.2,132.4L508.5,130.2Z M506.9,235.4L504.3,228.7L502.3,224.3L506.4,221.5L509.2,225.9L507.0,230.2L506.9,235.4Z M492.8,227.5L488.9,227.6L486.7,223.5L489.1,219.1L494.4,216.8L498.7,214.7L502.5,218.9L504.9,222.8L500.1,224.3L492.5,224.4L492.8,227.5Z M736.8,198.6L731.3,196.8L727.1,196.6L725.1,192.8L726.3,188.3L732.2,191.4L736.1,191.7L734.4,196.4L736.8,198.6Z M557.9,146.8L565.3,148.1L569.6,146.9L570.7,150.7L566.7,152.4L562.6,153.0L558.7,153.5L557.8,149.9L557.9,146.8Z M301.9,194.6L301.9,194.6Z M301.1,188.0L301.1,188.0Z M303.2,188.0L303.2,188.0Z M548.6,145.3L547.8,149.2L543.2,148.1L540.8,144.5L545.6,144.8L548.6,145.3Z M560.0,124.2L565.3,123.3L569.3,119.8L574.7,119.5L578.9,120.4L581.2,124.1L581.2,128.4L577.1,130.0L573.1,130.0L567.3,129.1L562.7,128.9L560.1,125.2L560.0,124.2Z M272.2,208.4L273.7,212.0L272.2,208.4Z M334.5,174.6L334.5,174.6Z M339.4,301.4L335.5,303.2L330.6,300.9L326.7,303.4L324.3,297.5L323.4,292.6L323.8,288.5L322.8,284.9L324.0,280.1L322.3,275.6L328.3,274.0L333.0,272.8L332.9,277.0L338.5,279.5L343.9,281.5L346.0,285.2L351.2,288.0L353.1,292.4L352.2,296.6L346.6,295.1L342.1,295.8L339.8,301.9L339.4,301.4Z M352.7,320.5L359.0,315.1L362.9,312.8L360.9,308.7L358.1,305.0L351.9,301.5L351.4,297.1L353.1,292.4L351.2,288.0L346.3,287.9L346.0,284.2L341.2,280.8L335.6,279.1L333.1,275.4L328.3,274.0L324.2,275.8L319.7,275.7L319.9,272.1L315.5,273.5L312.0,269.7L311.6,266.1L313.7,262.3L318.7,260.3L322.5,253.6L321.1,248.7L326.6,246.1L330.5,248.3L334.9,246.9L335.4,242.7L339.5,240.7L344.2,239.4L346.7,243.6L350.7,246.6L354.9,245.7L359.2,244.1L363.1,244.6L368.0,240.3L370.9,245.6L370.4,249.5L375.7,250.5L381.0,252.2L385.2,253.6L394.0,256.8L401.6,258.6L406.8,261.9L410.8,265.7L410.2,271.0L405.3,275.8L401.8,280.4L400.6,286.6L399.9,290.2L398.4,295.7L395.4,301.2L389.9,303.6L385.9,304.5L381.2,306.2L376.1,310.4L375.6,315.8L370.4,322.3L366.5,325.2L363.6,328.8L362.5,324.8L357.9,322.0L352.7,320.5Z M791.9,239.4L791.9,239.4Z M734.3,185.2L729.3,187.7L730.0,184.0L734.3,185.2Z M565.5,293.3L569.8,297.6L575.2,301.5L569.3,305.0L565.8,308.7L561.9,309.9L557.7,310.6L553.4,312.6L551.5,308.1L550.8,301.0L553.4,292.6L559.3,291.7L564.1,291.2L565.5,293.3Z M539.0,232.7L545.9,231.6L551.3,229.0L555.5,225.3L560.2,226.5L562.8,230.8L567.0,234.7L564.2,238.5L559.5,239.2L555.4,240.1L549.8,238.3L547.2,241.8L542.3,242.5L538.4,241.0L537.0,237.3L539.0,232.7Z M337.3,141.4L341.5,141.6L336.1,141.8L337.3,141.4Z M342.1,135.4L337.5,134.7L342.0,135.0L342.1,135.4Z M184.4,136.8L178.9,136.1L172.7,133.3L178.6,132.6L183.3,135.5L184.4,136.8Z M356.5,131.7L360.8,134.4L364.7,137.6L364.4,141.1L358.4,140.6L353.5,139.0L348.5,138.9L350.8,135.4L353.4,131.7L358.4,129.6L356.5,131.7Z M160.9,123.9L164.8,128.2L160.0,125.4L160.9,123.9Z M297.4,105.0L297.4,105.0Z M290.7,103.7L285.9,104.9L290.8,103.2L290.7,103.7Z M282.4,96.8L288.4,98.9L293.5,100.5L289.0,101.5L285.1,101.7L280.6,101.5L280.5,96.6L282.4,96.8Z M306.1,93.3L306.1,93.3Z M255.6,88.7L250.5,88.9L245.0,88.1L249.0,86.3L253.2,87.4L255.6,88.7Z M268.6,87.8L275.1,89.9L279.4,91.5L281.4,86.9L288.9,87.5L290.5,91.0L287.0,95.0L280.8,94.7L276.8,98.9L270.2,100.6L265.1,103.4L259.2,107.9L258.0,112.5L262.9,115.0L267.7,116.3L272.5,117.3L276.8,119.3L282.7,121.0L287.0,121.1L290.1,125.7L295.8,130.5L297.8,123.7L303.0,119.7L302.4,114.5L302.4,110.3L300.4,104.6L306.6,104.7L311.3,104.3L316.8,106.4L322.2,107.5L322.9,112.4L327.1,114.2L333.3,110.3L340.3,114.3L342.1,118.5L347.8,121.2L351.8,121.8L356.5,124.8L357.7,128.3L349.8,130.8L342.3,133.1L336.8,132.7L333.0,132.6L328.2,134.5L321.2,138.6L329.9,135.4L336.0,136.3L334.4,140.3L338.6,143.3L342.8,142.9L347.2,142.9L338.3,145.8L333.0,148.4L335.4,144.3L331.3,144.4L326.8,143.4L325.6,139.5L321.1,141.0L317.3,145.0L312.6,145.0L308.7,145.0L304.8,147.1L298.8,148.2L294.9,151.1L289.3,152.8L290.1,148.3L289.0,144.2L285.1,142.0L281.1,139.8L276.5,138.1L271.9,138.0L267.9,137.4L263.3,136.9L258.9,136.4L251.5,135.7L242.8,135.7L234.1,135.7L226.4,135.7L218.8,135.7L211.2,135.7L203.4,135.7L193.3,135.7L186.1,135.7L180.8,133.4L174.3,131.4L170.0,126.9L166.5,123.3L167.8,119.5L163.4,118.0L159.2,113.7L155.1,111.7L151.2,111.3L146.5,111.0L142.2,109.4L139.7,96.0L139.7,87.3L144.5,87.9L148.5,89.0L153.4,88.3L160.3,87.8L168.3,86.2L172.5,85.5L178.6,87.9L185.5,87.7L189.6,87.1L193.5,88.1L199.5,89.0L205.5,89.2L210.0,92.1L216.8,91.8L221.8,92.8L226.7,89.7L230.8,90.0L236.2,91.1L240.7,92.2L244.7,91.8L250.4,90.0L254.4,90.8L259.2,88.8L253.5,86.5L256.7,82.2L262.6,83.6L263.8,87.4L268.6,87.8Z M208.2,79.4L212.7,79.8L219.1,79.8L223.5,82.8L225.2,79.1L230.6,80.4L233.0,84.3L237.3,85.5L241.9,86.6L237.5,87.8L233.6,89.2L229.2,88.6L221.4,89.5L215.0,89.9L210.4,90.1L205.5,88.3L200.1,86.8L205.8,86.1L212.7,85.8L207.8,85.3L202.3,85.5L197.3,84.5L203.3,83.6L199.3,83.6L194.9,83.0L198.8,80.4L205.6,78.9L208.2,79.4Z M232.9,78.7L226.7,78.6L231.0,78.2L232.9,78.7Z M304.9,79.4L299.7,80.0L293.3,78.9L300.5,78.1L304.9,79.4Z M278.8,79.3L283.2,78.9L289.6,77.9L294.0,80.3L298.7,81.2L306.8,81.4L310.6,83.6L315.4,83.0L324.2,85.4L328.9,88.6L324.2,89.7L330.2,91.2L334.2,91.7L341.9,94.0L336.7,98.3L329.5,95.1L332.0,99.2L333.9,103.8L324.2,101.3L330.5,104.7L324.0,104.6L318.5,103.2L312.5,100.2L301.4,100.1L305.7,97.6L311.0,97.3L314.3,93.0L308.7,90.0L303.6,89.2L298.2,86.3L292.2,87.3L282.9,86.7L277.5,86.1L273.4,85.7L269.5,81.5L274.1,78.4L280.7,77.8L278.8,79.3Z M243.5,77.7L251.1,77.9L252.8,82.8L248.6,83.7L244.4,82.6L238.1,80.8L243.3,80.4L243.5,77.7Z M261.8,80.2L256.2,81.9L256.0,77.7L263.8,77.1L268.7,77.7L261.8,80.2Z M192.2,83.4L185.4,84.6L178.2,82.3L183.3,78.1L189.4,76.3L199.6,76.9L204.8,78.6L195.3,80.8L192.2,83.4Z M260.8,75.0L255.7,75.8L259.8,74.3L260.8,75.0Z M248.3,71.0L249.1,75.0L244.9,75.2L238.1,73.7L244.5,71.2L248.3,71.0Z M223.5,72.2L229.4,72.7L219.7,75.4L213.2,76.4L209.3,76.4L214.3,74.6L202.8,74.9L212.3,72.3L216.8,73.7L221.3,73.9L223.5,72.2Z M258.0,70.1L265.9,70.9L270.5,73.0L275.5,73.7L283.3,73.4L288.5,73.2L292.7,73.3L287.3,76.0L280.0,76.4L274.7,76.4L270.6,76.1L263.8,75.4L254.8,71.6L258.0,70.1Z M203.0,68.8L198.3,71.5L193.6,72.5L189.5,72.9L195.6,69.1L199.5,69.2L203.0,68.8Z M260.2,69.1L254.2,69.0L258.7,68.4L260.2,69.1Z M218.4,68.7L213.6,69.4L219.3,68.0L218.4,68.7Z M219.7,66.6L212.4,67.0L216.4,66.1L219.7,66.6Z M255.1,67.9L249.2,67.8L255.8,67.0L255.1,67.9Z M244.3,67.2L236.9,67.2L231.2,67.1L235.4,65.3L242.3,66.1L244.3,67.2Z M277.6,64.1L272.5,67.3L267.9,67.5L262.6,67.2L257.3,64.8L252.9,63.0L259.0,61.1L263.8,60.4L271.4,62.1L275.6,62.6L277.6,64.1Z M324.9,56.1L331.8,56.3L337.3,56.6L341.9,57.2L335.6,58.8L329.4,59.3L322.5,61.9L318.1,63.8L312.8,64.2L303.5,64.9L307.3,66.8L301.0,68.2L296.2,69.8L300.9,70.3L294.1,72.3L287.4,71.6L279.9,72.0L271.3,71.6L275.7,69.9L282.8,69.1L275.2,67.1L281.8,65.7L277.8,62.7L284.8,62.8L290.8,62.2L285.1,62.0L276.1,62.1L271.6,61.3L266.5,59.7L272.7,58.4L277.7,58.0L284.7,57.3L289.4,56.7L297.3,56.0L305.1,55.9L313.9,55.8L319.4,55.9L324.9,56.1Z M524.5,139.1L521.7,142.7L517.5,142.7L517.2,139.1L521.3,138.9L524.5,139.1Z M324.6,372.8L324.6,378.0L328.9,378.1L324.6,379.7L318.5,378.5L312.7,375.9L318.3,376.2L322.8,372.5L324.6,372.8Z M325.7,300.2L327.9,306.1L325.2,311.1L322.0,316.4L321.3,320.8L320.9,327.2L320.1,332.1L318.3,337.7L316.8,342.9L316.6,348.1L317.4,352.2L317.1,356.3L314.9,361.4L312.4,365.1L315.2,370.0L322.4,371.7L318.5,375.6L314.6,374.9L308.5,371.9L307.1,367.5L306.8,363.6L310.6,359.5L306.7,358.8L310.0,352.9L314.2,348.9L310.0,350.9L311.7,343.2L312.2,339.3L314.6,332.9L316.4,329.1L316.8,322.1L317.3,317.3L319.3,310.0L320.1,305.1L320.9,299.9L320.7,296.1L321.5,292.2L324.3,297.5L325.7,300.2Z M782.0,206.4L777.7,206.8L781.7,203.1L782.0,206.4Z M826.2,133.9L830.7,134.6L834.7,138.5L838.6,138.5L845.1,136.9L841.9,142.4L837.0,144.3L835.1,149.8L831.2,151.0L827.2,152.0L822.5,154.1L817.6,156.8L812.1,158.6L810.9,154.5L805.7,156.9L801.7,158.5L803.9,162.6L808.8,161.6L812.7,162.6L808.3,165.7L807.2,169.8L809.8,174.3L811.5,177.8L811.6,182.3L807.7,186.9L803.2,192.7L796.2,196.8L791.7,198.1L785.8,199.7L780.8,202.7L776.1,199.7L770.4,196.4L764.5,197.0L759.8,197.9L755.5,199.3L752.1,193.9L752.2,189.5L752.2,185.8L746.0,183.7L741.7,181.7L736.4,184.9L731.9,184.5L727.0,186.3L722.2,184.7L717.3,183.2L713.0,181.3L708.3,179.0L703.7,177.9L700.5,173.9L701.7,169.9L694.7,166.2L691.6,162.7L688.3,158.0L692.9,155.4L699.8,153.9L704.7,151.7L704.4,145.2L709.4,144.3L712.6,139.6L717.6,140.3L721.3,136.7L727.1,137.8L732.5,140.6L732.4,144.3L738.9,145.1L743.6,146.8L746.2,150.3L754.3,150.8L760.2,150.8L767.1,152.2L771.2,151.7L775.3,150.9L782.2,150.0L784.6,146.3L790.0,145.4L796.4,143.3L803.8,140.8L799.8,138.7L795.8,138.6L798.2,133.6L804.8,133.0L807.1,129.5L809.2,125.7L815.8,125.3L821.9,126.8L825.3,131.6L826.2,133.9Z M492.7,238.3L488.1,237.9L483.3,239.0L478.8,235.5L479.0,231.0L478.8,227.2L483.0,225.7L487.3,226.3L492.8,227.5L492.4,232.8L492.8,237.4L492.7,238.3Z M533.4,244.7L528.8,244.7L524.7,244.7L522.9,240.9L522.4,237.2L525.9,233.6L530.0,233.7L532.6,229.7L534.7,224.8L536.2,220.9L538.1,224.6L537.2,229.1L539.0,232.7L537.0,237.3L538.4,241.0L540.9,244.7L536.6,244.8L533.4,244.7Z M578.8,241.8L578.8,245.7L576.2,250.5L574.8,255.2L575.0,260.5L575.7,265.2L578.6,269.5L574.1,269.6L572.8,275.2L575.0,278.8L570.0,278.3L565.8,277.5L561.1,275.5L557.3,275.7L555.7,270.8L555.5,267.0L551.3,266.2L547.2,268.3L543.1,266.9L534.2,263.7L538.8,260.1L540.8,256.3L544.8,251.7L545.4,248.0L546.2,244.5L547.4,240.2L551.9,239.1L557.3,240.6L562.4,238.1L567.5,238.0L571.5,239.7L575.9,239.3L578.8,241.8Z M533.2,261.2L528.4,259.3L531.9,255.6L536.5,254.7L535.4,249.9L533.2,245.7L538.7,245.4L543.8,241.3L545.7,245.9L545.1,250.1L541.9,254.1L540.9,258.2L536.3,261.2L533.2,261.2Z M307.4,250.4L302.1,249.1L298.1,246.1L301.9,242.2L301.9,237.0L301.0,233.1L305.6,228.2L308.6,224.1L314.4,222.6L313.4,227.3L315.1,231.3L319.4,233.5L323.7,235.5L327.9,235.8L326.7,239.5L326.7,243.4L329.1,247.1L321.6,246.0L321.1,250.4L321.4,260.0L321.0,256.4L316.6,255.1L311.8,252.9L307.4,250.4Z M288.0,230.8L283.7,227.6L281.3,223.8L285.6,225.0L288.1,228.8L288.0,230.8Z M289.8,195.9L294.0,196.1L299.8,197.5L304.4,200.5L308.5,201.7L301.3,203.7L298.8,199.6L294.2,198.6L290.0,197.8L285.6,198.3L289.8,195.9Z M583.6,168.0L588.4,166.8L584.1,168.1L583.6,168.0Z M586.8,168.2L582.4,168.1L586.5,168.1L586.8,168.2Z M543.3,136.6L539.0,135.6L534.7,136.0L533.1,132.2L537.2,131.0L541.5,131.7L547.0,133.4L543.3,136.6Z M525.4,121.7L530.6,123.5L534.9,123.8L537.5,128.5L533.1,132.2L534.7,136.0L529.2,139.1L525.3,139.0L521.3,138.9L517.0,135.2L515.7,131.5L518.1,126.0L522.5,124.0L525.4,121.7Z M610.1,220.4L609.3,224.5L608.2,220.7L610.1,220.4Z M532.4,120.2L528.2,120.8L532.4,120.2Z M527.9,118.3L523.7,122.1L520.7,118.1L525.0,116.0L527.9,118.3Z M316.7,204.0L321.2,204.2L325.4,206.6L321.2,207.0L316.9,208.6L316.7,204.0Z M530.7,195.2L521.9,199.7L514.5,204.3L508.1,205.5L504.7,201.9L496.0,196.8L487.4,191.7L477.8,186.1L482.0,181.0L486.6,180.0L490.6,177.9L496.7,174.7L495.6,170.9L496.9,166.7L501.3,165.3L508.1,164.2L512.3,164.0L518.7,163.4L521.4,167.2L519.5,172.2L524.2,179.3L524.7,184.3L524.8,188.1L525.4,191.8L529.5,193.8L530.7,195.2Z M294.8,257.9L293.2,252.5L295.3,248.2L301.0,248.1L305.0,249.0L306.9,253.6L301.1,257.0L299.0,260.6L294.4,260.3L294.8,257.9Z M589.2,181.2L587.3,185.1L582.9,180.3L585.2,185.4L587.2,189.0L591.2,194.2L593.8,198.2L584.1,198.7L574.2,198.7L563.9,198.7L563.9,190.1L563.9,181.8L563.4,177.5L567.7,176.3L572.7,177.6L576.9,176.6L581.0,176.7L586.3,177.7L589.2,181.2Z M608.2,220.7L604.5,217.1L600.5,216.1L596.1,216.8L593.9,212.0L598.2,208.0L600.3,212.8L605.2,216.2L610.1,220.4L608.2,220.7Z M476.9,152.3L479.6,147.9L486.2,148.3L491.0,148.6L495.1,148.7L500.9,150.6L507.6,150.9L502.1,154.3L499.3,158.3L498.3,162.2L491.3,164.5L487.2,165.2L483.3,163.8L481.9,158.9L482.5,154.1L477.8,151.7L476.9,152.3Z M562.1,115.1L562.9,111.2L568.9,111.3L570.8,115.2L565.4,115.0L562.1,115.1Z M596.9,215.1L602.3,216.1L606.3,218.6L606.5,222.9L609.7,226.6L620.0,231.3L614.9,238.3L609.3,240.1L605.2,240.9L601.1,242.0L594.2,239.6L590.2,237.2L587.1,233.1L586.8,227.6L589.0,223.6L592.7,218.4L596.9,215.1Z M573.1,88.8L574.3,93.8L575.5,98.5L580.5,103.3L571.7,108.8L567.1,109.0L562.6,109.9L558.4,110.4L554.5,108.3L553.8,103.9L563.2,98.6L560.2,91.5L556.2,89.9L560.5,89.3L565.7,88.8L570.9,86.3L573.1,88.8Z M955.8,290.5L955.8,290.5Z M958.4,289.2L958.4,289.2Z M40.2,288.5L40.2,288.5Z M343.6,371.0L348.8,370.2L344.9,372.0L343.6,371.0Z M524.4,151.6L524.4,151.6Z M509.2,132.4L514.5,134.4L520.7,135.6L518.4,139.3L517.4,143.3L519.3,147.0L511.6,148.7L507.6,150.9L501.8,150.1L496.2,149.6L496.9,142.6L492.4,139.0L488.5,138.1L495.9,136.5L503.4,133.0L508.0,131.5L509.2,132.4Z M528.4,259.3L524.0,255.0L523.1,251.1L525.1,247.5L530.0,244.6L533.9,246.9L536.6,251.3L535.8,255.8L530.2,255.9L528.4,259.3Z M485.5,122.7L480.6,123.9L485.5,122.7Z M492.3,113.2L494.3,117.3L497.2,122.5L501.2,126.5L503.7,130.3L498.0,131.5L493.6,132.2L488.4,132.5L486.5,128.7L488.3,125.2L492.5,124.0L487.6,122.2L484.3,117.5L487.2,113.2L492.3,113.2Z M606.2,153.1L603.0,149.4L608.3,149.2L612.3,150.7L616.2,150.8L611.4,154.1L606.2,153.1Z M502.7,236.2L498.7,237.5L492.7,238.3L492.4,232.8L492.8,227.5L496.9,224.3L500.9,226.2L501.2,229.8L501.5,233.9L502.7,236.2Z M478.4,232.1L474.4,230.3L471.6,226.6L467.5,228.2L463.4,226.6L462.5,223.1L468.1,221.2L472.2,221.6L476.2,221.2L478.0,224.8L480.0,230.0L478.4,232.1Z M457.0,219.3L461.5,217.6L457.0,219.3Z M461.3,224.2L457.4,221.1L465.0,220.6L461.3,224.2Z M524.3,247.6L528.8,244.7L524.3,247.6Z M560.6,166.7L565.9,167.5L560.1,167.7L560.6,166.7Z M568.0,153.0L563.7,154.5L559.7,156.8L561.4,160.8L559.2,165.0L554.4,162.2L551.7,158.2L553.7,154.7L557.7,154.0L562.6,153.0L566.7,153.6L568.0,153.0Z M380.5,57.2L389.1,55.8L398.0,55.9L410.3,54.8L430.7,55.1L446.7,57.0L442.0,57.9L432.2,58.0L418.5,58.2L428.8,58.4L436.5,59.2L441.5,58.4L447.3,59.8L459.7,58.9L467.4,59.3L458.4,62.0L448.8,62.9L454.7,63.0L449.6,66.2L452.8,70.4L448.8,70.5L444.6,71.2L449.3,72.4L450.5,76.6L444.8,76.8L439.8,79.0L443.4,83.2L437.9,84.7L432.6,86.1L439.4,86.2L429.1,90.2L421.6,91.0L416.1,92.0L407.1,96.0L401.9,96.7L396.1,98.7L390.6,103.7L390.5,107.5L385.5,109.9L376.7,108.0L372.5,104.4L368.0,101.5L366.4,97.9L363.8,94.0L364.6,90.5L368.5,89.6L363.4,88.3L361.1,84.8L368.7,85.3L364.3,83.9L359.4,83.4L358.6,79.8L353.5,75.7L343.4,72.4L338.0,72.3L331.2,72.4L324.9,72.5L317.5,70.3L324.2,69.6L329.4,69.5L318.4,68.8L312.7,67.9L322.7,65.9L332.1,64.7L326.2,63.1L337.2,60.5L345.9,58.6L353.8,58.2L361.7,58.2L371.2,57.6L377.3,58.5L386.2,59.5L380.1,58.2L380.5,57.2Z M269.8,218.0L265.7,217.0L265.5,212.5L267.4,208.4L272.2,208.4L272.0,212.9L271.1,216.5L269.8,218.0Z M365.7,244.2L361.8,245.1L362.0,241.5L362.1,236.6L367.6,239.3L365.7,244.2Z M347.3,230.5L350.6,234.1L353.5,238.2L352.8,242.2L352.6,246.1L347.6,245.8L347.1,241.6L346.1,237.8L345.3,234.0L347.3,230.5Z M276.9,219.7L273.0,217.0L274.5,213.3L279.1,213.2L284.0,213.0L282.4,216.5L278.3,217.9L276.9,219.7Z M548.1,142.9L543.4,144.5L543.2,148.1L547.4,150.5L543.3,149.2L538.8,146.8L534.9,144.7L539.2,143.9L543.1,141.8L547.2,143.2L548.1,142.9Z M313.0,203.5L317.0,205.3L312.3,207.5L313.0,203.5Z M541.4,140.7L545.6,138.6L550.2,137.4L555.9,137.3L553.7,141.9L548.1,142.9L543.1,141.8L541.4,140.7Z M808.5,273.9L804.0,272.3L808.6,273.3L808.5,273.9Z M818.0,273.7L818.0,273.7Z M801.3,268.9L801.3,268.9Z M814.1,268.9L809.9,270.8L814.1,268.9Z M777.6,265.8L782.5,266.0L787.8,266.2L792.6,268.1L787.7,269.5L782.6,269.0L777.8,267.8L772.0,267.2L776.2,264.8L777.6,265.8Z M844.3,264.5L844.3,264.5Z M825.2,258.1L825.2,258.1Z M833.4,257.2L828.6,258.0L833.4,257.2Z M842.8,252.7L843.5,256.5L848.3,255.4L853.5,254.0L857.6,255.6L860.4,263.7L860.4,271.3L855.5,268.9L851.7,269.6L853.7,264.5L847.5,260.6L841.6,258.3L837.3,256.6L841.9,255.8L837.9,255.2L833.5,252.2L838.3,250.9L842.4,251.8L842.8,252.7Z M820.1,246.7L816.1,249.5L809.4,249.1L809.1,253.3L815.2,251.4L810.5,254.4L812.5,258.2L814.7,262.5L810.5,260.7L809.2,256.1L807.8,262.9L805.4,258.2L804.9,253.2L806.2,249.6L810.9,247.6L817.1,247.9L820.1,246.7Z M828.9,247.4L828.1,251.8L825.6,247.6L828.9,247.4Z M801.2,245.7L800.2,249.8L797.9,253.5L796.8,259.4L792.5,258.2L786.4,258.1L781.7,256.8L780.0,253.1L778.4,249.0L780.3,245.3L785.7,247.9L790.8,247.2L794.2,243.4L799.0,240.0L801.7,244.7L801.2,245.7Z M770.4,263.7L765.4,261.8L761.1,258.4L757.9,254.8L753.7,249.6L752.0,245.7L746.4,241.0L743.5,237.2L749.1,237.8L753.4,241.6L759.8,245.1L763.4,248.7L765.8,252.5L769.9,255.7L770.5,260.0L770.4,263.7Z M698.9,167.2L701.4,171.8L701.2,176.5L707.3,179.6L707.1,183.7L712.9,186.1L717.9,187.6L722.9,188.4L726.8,184.5L731.0,187.3L735.2,187.4L738.7,183.2L743.8,182.3L748.7,184.1L743.1,188.0L741.6,192.4L738.4,196.2L734.4,196.4L736.1,191.7L732.2,191.4L728.4,189.3L725.1,192.8L727.1,196.6L722.3,199.8L717.4,204.5L712.6,208.8L706.5,212.8L705.0,217.7L704.1,221.9L704.1,225.8L700.0,229.2L695.7,229.2L693.6,223.6L690.7,217.4L687.9,212.7L686.9,208.2L686.1,202.4L681.9,201.6L676.8,198.5L674.2,194.7L681.6,193.2L679.3,188.2L683.4,184.9L687.7,180.1L690.1,176.1L689.4,172.0L693.6,169.5L698.9,167.2Z M484.2,124.3L482.7,128.1L478.1,129.4L475.2,124.3L480.6,121.4L484.2,124.3Z M637.8,163.2L641.9,161.4L646.5,161.3L651.4,162.7L656.2,164.9L655.4,169.7L655.5,174.9L655.6,180.4L660.3,184.1L661.8,187.6L657.2,191.5L652.4,190.8L646.7,189.9L642.4,187.1L636.7,187.4L631.7,185.0L628.1,179.7L624.1,180.2L622.3,176.0L617.8,173.0L616.7,168.9L614.4,163.3L612.7,158.0L617.9,159.6L621.9,157.8L625.7,162.3L629.9,164.0L637.6,163.7L637.8,163.2Z M616.1,166.1L616.1,170.7L621.0,174.2L622.7,178.9L614.3,181.9L607.1,177.2L600.2,175.0L604.8,169.7L605.5,165.2L612.3,163.1L616.1,166.1Z M462.9,94.9L461.9,99.8L454.5,101.4L449.0,101.5L441.8,100.8L437.8,96.9L443.4,95.0L447.4,96.6L451.3,95.4L458.7,94.8L462.9,94.9Z M591.3,173.7L590.5,177.4L589.2,181.2L587.6,177.2L589.3,173.4L591.3,173.7Z M539.7,160.8L538.6,164.6L531.8,162.2L537.7,161.0L539.7,160.8Z M523.5,153.8L524.7,158.6L520.9,154.4L523.5,153.8Z M531.6,140.9L535.6,143.6L531.5,144.1L534.6,148.3L538.7,152.1L542.9,153.9L547.0,155.8L543.1,155.6L543.6,159.2L539.4,156.6L534.8,153.9L530.9,152.7L526.9,149.8L522.7,146.5L517.9,146.7L517.5,142.7L521.7,142.7L526.5,141.5L531.1,140.1L531.6,140.9Z M301.8,206.9L301.8,206.9Z M590.8,174.4L599.1,172.1L594.6,176.5L595.8,180.0L589.3,181.5L590.5,177.4L590.8,174.4Z M844.1,170.3L839.9,173.7L842.2,169.8L844.1,170.3Z M860.3,163.3L858.4,168.0L850.7,169.3L845.3,171.0L840.8,169.8L834.7,170.9L835.6,176.6L831.7,173.9L834.5,170.1L838.9,167.3L844.0,166.6L849.4,163.0L854.9,161.7L857.9,158.0L858.6,153.9L862.7,156.7L860.2,160.9L860.3,163.3Z M867.8,146.9L871.9,149.1L865.9,152.0L861.9,150.4L857.7,153.0L858.6,148.9L862.8,143.7L867.8,146.9Z M681.3,151.4L676.5,153.4L670.5,153.9L668.9,149.7L661.5,148.1L656.0,146.4L650.0,143.8L642.9,145.0L643.0,153.6L638.2,151.2L634.2,152.5L630.1,147.3L635.5,144.4L635.6,140.7L630.8,140.2L625.5,141.7L620.9,138.7L619.5,134.8L624.1,133.6L629.7,129.4L633.7,129.3L639.4,130.9L645.1,130.9L649.2,130.9L653.2,131.4L657.4,130.4L653.3,128.8L657.7,126.4L666.6,123.2L674.2,121.7L681.1,121.3L687.9,123.9L696.5,122.9L704.5,131.3L709.4,131.4L714.5,131.3L718.6,134.0L723.3,135.2L719.2,136.9L712.6,139.6L710.7,143.7L704.4,145.2L706.7,149.2L702.3,150.0L694.2,149.7L689.7,149.0L683.6,150.0L681.3,151.4Z M604.8,252.0L603.9,255.8L601.2,260.1L596.5,258.6L587.1,252.5L587.3,248.8L588.4,242.9L588.5,238.7L592.4,239.6L597.4,241.6L601.9,241.0L607.0,240.9L604.8,252.0Z M681.3,151.4L687.8,150.8L693.3,150.0L698.5,149.8L703.5,150.8L696.5,154.2L691.1,155.8L683.4,158.3L677.5,157.8L681.5,156.1L686.7,154.6L681.8,154.0L681.3,151.4Z M764.5,225.2L762.2,221.6L763.2,216.8L768.9,216.7L774.4,216.9L774.7,221.2L770.4,223.0L764.5,225.2Z M828.0,159.9L830.8,164.2L829.9,168.1L825.5,169.6L822.3,164.3L824.7,160.7L828.0,159.9Z M553.1,151.9L553.1,151.9Z M622.6,180.1L622.6,180.1Z M768.9,216.7L767.8,211.6L765.7,207.4L761.7,208.2L758.8,204.6L758.6,200.0L762.6,199.4L766.9,201.6L768.6,206.4L772.3,211.3L774.4,216.9L768.9,216.7Z M591.5,172.4L591.5,172.4Z M480.3,239.8L474.7,236.9L470.8,234.2L473.9,230.4L477.7,232.0L478.8,235.5L480.3,239.8Z M538.0,196.7L530.7,195.2L526.3,193.1L523.8,189.1L524.9,185.4L525.1,181.3L525.7,177.8L529.4,172.7L533.4,173.3L539.0,174.7L546.1,178.2L550.0,178.8L551.5,174.8L558.5,173.8L563.7,175.6L563.1,179.9L563.9,190.1L563.9,198.7L563.9,203.3L550.7,199.8L540.5,195.4L538.0,196.7Z M709.0,232.4L705.3,236.1L703.7,230.9L704.8,227.1L709.0,232.4Z M574.1,317.6L571.8,321.3L571.7,317.3L574.1,317.6Z M558.1,123.2L553.8,119.3L561.0,118.7L565.3,119.1L565.3,123.3L560.0,124.2L558.1,123.2Z M515.4,133.0L515.4,133.0Z M553.8,119.3L557.6,115.2L561.6,116.9L567.6,115.9L572.0,118.9L567.7,120.2L563.5,118.5L556.7,118.5L553.8,119.3Z M486.7,166.6L490.7,167.4L495.4,169.4L496.5,173.3L492.2,176.0L487.6,178.8L482.0,181.0L477.8,182.7L477.5,186.7L473.0,187.0L468.1,192.2L463.7,197.9L456.5,200.0L458.3,196.3L461.4,192.8L463.1,188.7L467.8,184.6L472.1,182.7L474.9,177.3L477.9,172.4L482.3,170.4L484.8,166.6L486.7,166.6Z M568.0,137.5L572.2,137.6L576.4,141.1L572.2,143.9L570.4,139.4L568.0,137.5Z M626.6,279.1L628.3,284.4L627.4,288.4L626.3,291.9L624.1,297.8L622.5,302.2L620.4,308.2L616.0,309.7L611.8,307.1L610.8,303.1L612.2,299.4L613.6,295.3L612.4,290.6L616.3,287.3L621.9,284.1L624.8,280.5L626.6,279.1Z M251.8,189.6L250.3,193.4L249.9,197.6L251.6,201.9L254.9,206.1L260.9,207.0L264.8,206.4L268.6,203.6L273.7,199.8L278.1,200.2L276.1,204.2L272.9,208.3L267.4,208.4L268.8,212.5L264.3,214.4L260.1,212.8L254.5,213.2L249.5,212.4L245.2,211.0L240.2,208.8L235.5,207.3L230.4,203.5L230.1,199.0L226.8,194.5L220.8,190.3L217.9,186.6L213.2,182.4L210.8,178.2L206.7,175.8L206.9,179.6L210.9,183.7L214.8,187.8L217.1,192.1L220.3,195.9L216.5,194.0L213.0,189.3L209.1,187.2L208.3,183.3L203.8,179.6L200.7,174.1L206.8,173.7L216.3,176.9L221.4,176.9L227.8,175.9L232.4,179.7L236.5,182.4L242.0,181.4L245.7,185.7L250.8,189.7L251.8,189.6Z M552.6,152.3L557.2,151.3L552.7,154.1L552.6,152.3Z M468.9,215.9L472.8,214.7L485.8,213.8L484.7,201.8L483.5,191.8L487.4,191.7L496.0,196.8L504.7,201.9L508.1,205.5L510.9,210.7L507.0,214.0L502.6,215.1L498.7,214.7L494.4,216.8L489.8,218.6L486.7,222.7L484.5,226.4L480.5,226.3L477.5,222.4L472.9,222.2L469.0,217.3L468.9,215.9Z M537.2,166.3L537.2,166.3Z M536.6,165.9L536.6,165.9Z M754.4,202.9L749.9,206.5L751.7,210.7L751.8,214.3L753.5,219.0L753.1,224.4L751.7,219.4L749.9,215.4L748.3,210.5L743.7,213.3L741.6,209.7L739.0,204.8L735.9,199.9L738.4,196.2L741.6,192.4L743.1,188.0L748.2,186.8L752.2,185.8L752.2,189.5L749.4,194.2L754.4,196.5L758.5,199.0L754.4,202.9Z M550.6,150.8L550.6,150.8Z M724.3,135.0L731.8,132.6L735.7,131.5L740.6,132.2L744.9,133.4L751.0,132.3L752.6,128.6L757.8,129.8L765.0,133.1L770.6,132.4L775.7,133.8L779.6,135.0L785.2,134.8L792.3,132.8L798.2,133.6L795.1,137.7L799.8,138.7L803.8,138.6L798.3,141.8L792.5,144.2L787.3,145.0L784.0,148.7L779.2,150.8L771.2,151.7L767.1,152.2L760.2,150.8L754.3,150.8L749.0,150.3L744.7,148.9L738.9,145.1L732.4,144.3L732.5,140.6L727.1,137.8L724.3,135.0Z M588.3,276.9L593.3,277.3L598.2,276.3L603.0,274.1L603.7,279.5L603.8,283.1L602.5,287.6L598.5,289.9L592.7,293.5L588.7,297.8L590.4,301.7L591.0,305.3L584.4,309.2L580.9,305.2L582.4,299.3L583.3,295.3L583.9,289.0L579.7,287.0L584.9,282.6L587.7,286.1L590.1,282.4L587.6,278.7L588.3,276.9Z M468.9,215.9L464.0,212.0L460.1,211.8L458.7,207.7L458.4,203.1L467.0,200.2L467.1,195.7L469.4,189.5L477.8,189.6L477.8,186.1L487.4,191.7L483.5,191.8L484.7,201.8L486.0,211.9L475.6,213.9L471.0,214.0L468.9,215.9Z M588.3,276.9L588.3,281.7L591.4,287.1L587.1,283.5L584.3,279.8L585.1,275.2L583.7,271.5L587.6,273.7L588.3,276.9Z M758.3,235.5L763.1,237.1L764.1,241.3L766.4,246.2L762.1,245.4L757.3,240.8L756.3,235.9L758.3,235.5Z M803.1,239.6L799.0,240.0L794.2,243.4L790.8,247.2L785.7,247.9L780.7,246.9L784.6,243.7L788.8,242.8L793.0,240.6L797.0,235.7L802.4,236.7L803.1,239.6Z M541.8,316.7L538.3,310.9L536.8,305.7L536.4,301.6L532.8,295.9L530.1,292.2L534.4,289.6L546.7,290.4L554.6,291.8L559.3,290.9L564.1,291.0L559.3,291.7L555.3,292.5L553.4,300.9L550.8,307.8L550.8,316.4L545.6,317.3L541.8,316.7Z M923.7,299.2L919.5,297.7L923.7,299.2Z M505.5,222.1L501.1,217.4L507.0,214.0L510.9,210.7L510.9,205.3L521.9,199.7L530.7,195.2L534.7,196.2L538.6,200.3L539.1,208.2L535.7,213.4L535.7,217.3L536.2,220.9L531.4,219.6L527.3,219.1L523.0,220.1L518.7,219.4L513.9,217.6L509.4,220.7L505.5,222.1Z M521.7,238.9L517.1,240.1L512.9,236.9L506.9,235.4L507.0,231.6L508.2,228.0L509.1,223.6L510.1,219.8L516.5,218.5L523.0,220.1L527.3,219.1L531.4,219.6L535.8,220.9L534.7,224.8L532.6,229.7L530.0,233.7L525.9,233.6L522.4,237.2L521.7,238.9Z M281.0,224.1L276.0,219.9L280.0,217.2L284.2,215.9L286.6,220.0L285.8,224.1L281.3,223.8L281.0,224.1Z M515.5,125.1L516.8,129.0L512.7,129.9L508.5,130.2L512.0,126.1L515.5,125.1Z M572.0,83.9L580.0,85.6L575.1,88.6L570.9,86.3L566.9,87.1L560.5,89.3L554.3,88.1L546.0,90.0L541.2,93.0L534.6,98.8L530.5,102.7L532.3,107.0L529.3,111.3L521.4,113.9L514.5,113.3L512.8,105.4L521.9,101.9L526.9,99.5L531.6,96.3L537.7,91.8L542.0,90.0L549.0,87.1L554.6,86.1L558.8,86.2L562.7,84.3L567.4,84.4L572.0,83.9Z M563.2,68.3L557.5,69.3L553.0,68.8L558.5,66.9L563.2,68.3Z M546.6,64.0L555.1,65.8L548.6,66.7L543.7,70.8L535.2,69.4L528.7,66.0L533.7,63.3L538.7,64.1L543.4,63.2L546.6,64.0Z M565.0,62.4L570.0,63.2L558.8,64.7L551.3,64.3L547.2,63.7L552.3,61.9L558.6,61.8L565.0,62.4Z M725.2,185.0L719.8,187.9L712.9,186.1L707.1,183.7L707.3,179.6L713.0,181.3L717.3,183.2L722.2,184.7L725.2,185.0Z M942.2,345.5L942.7,350.3L938.2,353.2L936.0,357.1L930.4,358.8L926.0,357.8L930.1,353.0L935.8,350.4L939.4,346.9L942.2,345.5Z M946.2,334.4L951.7,338.4L956.2,338.0L952.2,342.0L949.8,346.3L944.2,342.2L946.4,337.2L942.2,332.2L946.2,334.4Z M650.4,200.7L647.7,205.5L643.8,208.3L638.6,210.2L632.9,205.7L640.6,203.3L642.3,198.7L641.9,195.1L646.7,194.3L651.2,196.4L651.5,200.0L650.4,200.7Z M644.1,189.6L644.1,189.6Z M692.1,163.4L698.9,167.2L693.6,169.5L689.7,168.9L690.3,173.5L690.2,177.7L686.1,182.4L680.5,184.7L679.6,190.0L674.2,194.7L669.6,190.7L664.9,191.1L660.8,191.2L661.8,187.6L660.3,184.1L655.6,180.4L659.8,181.6L663.9,181.5L669.6,180.3L673.2,176.3L677.1,175.6L678.7,170.6L683.0,168.0L686.4,164.3L690.6,163.6L692.1,163.4Z M301.0,233.1L297.8,229.0L294.8,232.7L290.1,230.9L294.2,228.7L298.1,227.7L302.3,229.8L301.0,233.1Z M322.2,291.0L317.6,291.5L312.3,288.2L307.7,285.6L305.1,281.6L300.4,274.2L298.0,269.6L294.2,265.3L291.9,261.1L296.5,260.4L301.1,257.0L306.9,253.6L308.1,250.1L313.3,255.4L317.5,255.5L321.4,260.0L316.6,260.7L313.1,265.5L312.0,269.7L315.5,273.5L319.9,272.1L319.7,275.7L324.5,279.3L323.8,283.7L323.8,288.5L322.2,291.0Z M823.0,230.4L822.5,235.4L817.5,235.6L815.9,231.7L812.0,233.9L815.6,229.7L820.6,229.0L823.0,230.4Z M816.8,226.0L812.7,227.3L817.1,223.8L816.8,226.0Z M802.8,228.3L805.4,223.5L802.8,228.3Z M811.5,222.3L811.5,222.3Z M820.7,221.6L820.2,225.8L817.6,220.7L820.7,221.6Z M810.6,219.5L810.6,219.5Z M810.0,206.8L812.4,212.1L811.1,216.6L816.8,217.8L811.9,217.8L806.8,215.1L807.7,208.9L810.0,206.8Z M898.4,265.9L894.9,262.0L898.7,265.3L898.4,265.9Z M888.4,262.8L883.9,264.7L879.0,263.4L882.9,262.8L887.5,261.1L888.4,262.8Z M876.2,267.2L880.1,271.2L885.4,274.0L880.6,274.0L876.0,272.1L869.9,267.8L864.5,271.8L860.4,271.3L860.4,263.7L860.3,256.1L864.8,257.7L869.5,259.0L873.1,262.8L877.3,264.2L876.2,267.2Z M891.4,260.5L886.9,257.1L891.1,259.3L891.4,260.5Z M538.4,130.8L536.9,127.2L541.8,122.8L547.6,122.4L553.4,123.3L558.1,123.2L560.8,127.1L561.4,131.7L557.5,134.6L553.4,134.9L549.4,134.3L545.1,133.2L539.6,131.5L538.4,130.8Z M330.6,206.8L330.6,206.8Z M833.9,151.1L831.5,154.6L827.0,156.6L827.6,160.5L823.7,161.8L819.4,161.5L820.3,157.7L822.5,154.1L827.6,153.2L832.2,149.7L833.9,151.1Z M476.9,152.3L481.0,152.5L482.0,156.2L481.2,160.5L479.9,164.0L476.3,160.5L477.1,156.3L476.9,152.3Z M339.8,301.9L340.9,297.9L346.6,295.1L351.3,296.4L351.9,301.5L357.4,302.2L358.4,305.9L360.4,310.1L357.7,313.9L352.8,313.9L352.7,309.7L346.6,306.1L339.8,301.9Z M629.8,192.2L629.8,192.2Z M558.0,138.3L562.4,138.0L566.3,138.0L570.4,139.4L572.2,143.9L573.0,148.0L566.6,147.5L561.6,147.9L557.4,146.4L553.3,144.0L555.3,140.3L558.0,138.3Z M867.1,131.6L869.7,135.7L864.3,138.3L866.7,142.3L862.7,140.8L862.6,136.0L863.3,131.1L862.1,125.6L866.1,126.9L867.1,131.6Z M558.1,123.2L553.4,123.3L558.2,122.0L558.1,123.2Z M52.7,94.6L60.8,93.9L65.8,96.1L59.1,97.3L53.7,99.2L49.7,97.5L44.2,97.4L40.3,96.3L40.0,89.1L46.3,90.9L53.0,93.2L52.7,94.6Z M960.0,84.7L960.0,84.7Z M43.3,84.6L43.3,84.6Z M867.0,79.2L863.1,79.2L857.9,78.9L863.0,77.7L867.0,79.2Z M885.2,74.8L878.2,75.5L873.4,74.6L878.8,74.2L885.2,74.8Z M870.8,73.7L859.3,75.4L855.1,75.9L850.0,74.4L854.8,72.3L861.5,72.4L870.8,73.7Z M647.0,85.0L637.2,84.9L631.9,83.2L639.1,78.2L647.9,73.6L656.3,72.1L664.8,71.6L669.2,70.8L674.2,70.5L665.2,73.3L657.4,74.4L649.4,76.6L641.6,81.1L647.0,85.0Z M773.4,70.4L783.9,71.0L789.6,72.1L781.5,76.2L786.5,77.8L791.3,78.3L795.3,77.9L803.5,78.3L814.8,79.7L820.4,78.4L824.5,78.3L828.6,79.6L831.5,83.9L835.5,84.8L842.1,83.4L846.4,82.8L851.4,83.5L857.4,83.2L882.1,81.5L890.9,84.7L901.2,84.3L906.3,84.6L911.3,88.0L919.2,87.4L924.1,87.9L928.9,87.6L933.4,89.7L943.8,87.1L949.1,87.0L956.4,88.1L960.0,98.4L953.4,99.2L958.4,103.0L953.3,104.1L946.1,105.9L939.9,107.8L935.3,110.3L925.0,110.5L917.9,110.3L914.0,114.1L916.7,119.0L909.8,123.2L905.1,126.4L900.7,131.0L898.6,126.0L897.2,120.8L900.6,116.1L904.7,114.5L909.3,111.6L913.7,109.2L918.3,107.3L909.2,108.7L900.5,106.7L894.1,110.6L886.6,112.8L879.6,111.9L871.8,111.5L863.4,112.2L855.1,116.8L845.3,122.3L849.3,122.6L854.7,123.4L861.2,126.1L859.3,130.4L857.9,137.0L854.1,140.3L849.8,144.7L844.7,148.7L839.6,150.1L834.6,150.7L835.5,147.1L840.1,144.7L842.7,139.8L838.6,138.5L834.7,138.5L830.7,134.6L826.2,133.9L824.4,130.2L819.6,126.0L812.4,125.3L807.1,126.9L804.8,132.0L798.2,133.6L793.8,133.0L788.5,134.4L782.8,135.4L777.2,135.0L773.2,132.7L767.4,132.7L761.3,132.1L755.5,129.5L750.0,131.0L744.9,133.4L740.6,132.2L735.7,131.5L731.8,132.6L726.9,134.6L721.9,133.7L717.5,133.1L713.1,130.8L705.9,130.1L698.8,125.4L690.1,125.1L684.6,123.1L676.5,120.8L667.8,122.6L657.0,124.0L655.7,127.6L656.8,131.5L652.4,132.1L645.1,130.9L639.4,130.9L633.7,129.3L629.7,129.4L624.5,131.9L619.5,134.8L620.9,138.7L625.5,141.7L619.3,145.9L621.4,149.7L622.6,153.4L618.6,152.3L613.8,150.3L608.3,149.2L602.4,148.4L595.9,145.8L597.7,142.1L599.1,138.4L602.4,134.3L597.1,133.5L590.4,132.0L586.3,127.9L582.2,128.5L582.8,124.9L578.6,122.1L574.7,119.5L569.7,115.9L571.9,111.6L577.2,105.8L576.8,101.7L577.2,96.5L576.6,92.0L572.7,90.5L579.5,87.7L586.3,88.3L593.3,88.9L603.0,91.5L602.3,95.4L598.1,96.0L586.7,94.2L589.3,99.7L594.6,101.0L601.2,99.5L607.6,94.9L612.3,95.8L612.9,91.4L618.2,90.8L618.4,94.4L622.4,93.9L628.4,91.3L637.3,89.3L641.7,90.3L646.5,90.2L653.2,90.7L654.7,87.0L662.3,87.7L675.1,91.1L671.0,87.9L670.4,84.3L675.2,82.2L685.5,80.2L685.2,84.1L685.4,89.0L682.2,95.3L686.1,94.8L691.8,91.9L688.1,87.5L686.8,83.3L691.4,81.7L698.3,81.4L703.6,81.3L708.3,82.6L705.8,78.2L710.2,77.7L716.3,77.8L721.9,77.5L730.7,73.5L737.4,73.2L745.0,72.3L752.8,71.6L757.5,71.7L766.7,68.7L771.1,69.5L773.4,70.4Z M768.5,67.3L754.1,68.2L758.8,65.1L762.8,65.0L769.3,66.3L768.5,67.3Z M630.7,62.1L625.0,62.5L618.8,62.8L614.6,62.0L619.6,61.5L623.5,61.5L627.9,61.2L630.7,62.1Z M755.4,65.9L749.8,66.2L742.7,65.6L738.5,64.7L733.0,62.5L739.7,60.9L745.2,60.4L750.1,61.6L756.0,63.8L755.4,65.9Z M577.7,252.6L575.7,256.8L575.6,253.1L577.7,252.6Z M477.5,186.7L469.4,189.5L469.5,195.5L467.0,200.2L457.0,200.2L462.3,199.8L464.5,194.7L469.3,189.3L474.0,187.3L477.5,186.7Z M609.3,211.9L605.3,206.4L602.9,202.9L599.7,198.7L598.4,194.7L594.4,190.3L591.1,186.1L589.0,182.4L593.3,181.2L594.6,176.5L599.7,175.3L607.1,177.2L614.3,181.9L619.0,182.1L623.7,183.4L628.2,187.7L629.5,191.7L632.9,196.3L640.6,197.5L640.6,203.3L632.9,205.7L625.5,206.6L621.3,210.1L616.0,209.6L611.9,209.6L609.3,211.9Z M586.8,227.9L584.6,223.3L580.1,227.1L575.7,226.5L571.5,228.1L566.3,226.3L561.8,229.6L558.7,225.0L557.5,221.4L556.7,217.8L558.8,213.4L560.9,204.3L563.9,198.7L574.2,198.7L584.1,198.7L594.2,198.7L594.8,203.8L598.2,208.0L594.2,210.4L592.8,215.4L591.7,220.7L588.8,224.5L586.8,227.9Z M586.8,227.9L584.2,231.8L588.7,234.6L588.5,238.7L583.5,241.2L578.8,241.8L574.5,239.8L570.0,237.8L565.9,233.7L561.0,229.9L564.1,226.0L568.4,227.9L574.0,228.1L578.8,227.3L582.8,224.1L586.4,227.9L586.8,227.9Z M457.3,218.3L457.3,213.5L461.3,211.3L465.7,212.6L469.0,217.3L470.6,221.0L466.2,220.7L460.3,220.5L464.6,218.5L460.6,217.7L457.3,218.3Z M914.3,274.5L914.3,274.5Z M911.1,273.0L911.1,273.0Z M913.2,272.4L913.2,272.4Z M908.6,269.5L904.3,267.3L908.6,269.5Z M902.6,267.1L902.6,267.1Z M470.8,234.2L466.9,231.8L467.5,228.2L471.6,226.6L473.2,230.5L470.8,234.2Z M275.6,218.8L270.5,218.5L274.9,217.4L275.6,218.8Z M625.1,227.9L620.0,231.3L611.6,228.6L609.3,224.5L614.0,225.6L619.2,224.8L623.6,223.5L625.1,227.9Z M627.1,223.0L629.2,228.5L626.4,234.1L622.0,240.2L616.4,245.2L610.2,249.3L606.9,253.4L604.7,243.5L609.3,240.1L614.9,238.3L622.1,231.3L625.1,226.7L627.1,223.0Z M553.3,144.0L557.4,145.7L557.8,149.9L553.6,149.4L549.1,148.4L549.6,144.4L553.3,144.0Z M354.0,236.1L359.4,235.9L361.0,240.2L360.7,244.6L356.7,244.8L352.8,242.2L353.5,238.2L354.0,236.1Z M548.2,134.5L552.2,134.7L557.6,135.5L553.2,136.5L549.0,137.7L544.7,138.3L547.4,134.5L548.2,134.5Z M535.3,141.5L540.9,141.1L536.8,143.9L535.3,141.5Z M556.7,96.6L550.5,101.6L545.6,103.6L545.6,108.5L545.7,112.4L542.0,116.9L537.5,118.9L533.1,120.8L530.1,116.0L529.3,111.3L532.3,107.0L530.5,102.7L534.7,100.6L538.6,95.5L542.9,91.3L550.8,90.4L556.2,89.9L560.2,91.5L560.2,95.1L556.7,96.6Z M543.6,116.1L543.6,116.1Z M549.5,114.8L549.5,114.8Z M553.3,101.1L553.3,101.1Z M582.0,312.4L582.0,312.4Z M599.1,172.1L594.1,174.6L592.2,171.1L591.8,167.4L597.5,163.9L603.9,163.5L608.2,163.1L605.8,166.9L599.1,172.1Z M537.0,220.0L534.6,216.5L539.0,211.2L540.1,203.4L538.0,196.7L550.7,199.8L560.9,204.3L561.0,213.6L557.0,216.6L556.1,220.6L556.8,224.4L551.3,229.0L547.0,230.7L542.7,232.5L538.6,230.4L536.2,226.6L538.2,223.0L537.0,220.0Z M504.8,235.7L501.8,230.6L500.9,226.2L504.1,234.1L504.8,235.7Z M762.2,221.6L757.7,220.5L754.2,224.7L753.6,228.4L756.7,232.7L761.0,235.5L756.2,234.5L751.7,230.4L751.9,226.8L754.5,222.3L753.2,217.7L752.8,212.3L748.8,207.0L752.9,203.9L757.0,203.1L758.2,207.0L763.2,208.1L767.6,209.3L769.8,213.7L763.2,216.8L762.2,221.6Z M681.5,156.1L677.5,157.8L683.4,158.3L688.3,158.0L691.6,162.7L687.2,162.5L682.6,163.5L677.7,162.2L673.3,163.3L674.2,159.2L677.2,155.0L681.5,156.1Z M656.4,166.8L651.4,162.7L646.5,161.3L641.9,161.4L637.8,163.2L637.7,159.1L635.2,154.6L639.9,154.4L635.2,152.3L639.9,151.9L645.9,153.6L649.8,150.2L654.5,153.8L659.4,156.5L664.0,159.3L670.1,161.4L665.5,163.4L661.5,166.3L656.4,166.8Z M819.4,270.7L823.6,269.6L819.7,271.9L819.4,270.7Z M342.4,224.9L342.4,224.9Z M524.2,179.3L523.1,175.1L519.2,170.4L521.0,165.0L526.1,163.1L528.0,166.7L526.4,171.2L528.0,175.1L525.5,178.7L524.2,179.3Z M594.3,153.6L601.0,154.1L606.2,153.1L611.4,154.1L612.7,158.0L614.4,163.3L609.3,162.8L605.3,163.5L601.0,164.3L594.7,164.5L590.9,164.7L587.0,165.5L583.1,165.7L578.3,164.4L573.4,164.4L569.1,162.1L566.9,157.9L573.7,155.6L579.6,154.1L585.6,152.0L589.9,151.9L594.3,153.6Z M569.5,155.1L574.1,153.6L569.5,155.1Z M811.2,193.1L809.7,196.8L808.4,192.7L811.2,193.1Z M586.6,252.2L596.3,257.2L600.2,260.9L599.2,265.1L600.3,268.7L602.1,273.6L598.2,276.3L594.0,277.1L588.3,276.9L586.7,272.6L582.3,270.8L577.2,266.5L575.4,262.6L578.0,258.3L578.8,254.0L586.6,252.2Z M581.4,252.4L576.2,253.4L576.3,248.6L579.7,244.9L579.8,241.2L585.3,241.2L589.5,245.6L586.6,249.7L581.4,252.4Z M581.2,128.4L586.3,127.9L590.4,131.5L595.6,132.4L602.4,134.3L601.6,138.2L597.7,140.1L591.5,141.2L592.9,144.7L586.6,146.5L585.1,142.5L581.1,141.9L575.7,144.3L575.5,140.5L570.3,136.9L566.3,138.0L562.4,138.0L558.0,138.3L557.5,134.6L561.4,131.7L567.3,129.1L572.2,129.7L577.1,130.0L581.2,128.4Z M352.7,320.5L357.0,322.1L362.5,324.8L363.6,328.8L359.6,331.6L354.0,330.3L351.4,324.8L352.7,320.5Z M102.5,205.5L102.5,205.5Z M101.1,201.8L101.1,201.8Z M99.4,200.6L99.4,200.6Z M97.1,200.2L97.1,200.2Z M92.8,198.7L92.8,198.7Z M257.7,134.8L263.3,136.9L267.9,137.4L271.9,138.0L276.5,138.1L281.1,139.8L285.0,141.5L289.0,144.2L290.1,148.3L287.5,152.1L292.3,151.5L298.3,150.0L303.7,148.2L307.5,145.4L312.6,145.0L317.3,145.0L321.1,141.0L325.6,139.5L326.8,143.4L323.5,147.4L319.5,149.5L319.5,153.2L315.2,153.7L310.9,155.2L308.6,159.1L305.9,163.2L304.9,158.7L305.1,163.7L304.8,168.8L300.5,170.8L294.8,174.1L291.7,178.3L293.1,181.9L295.4,187.3L294.6,191.2L289.8,187.6L288.8,183.4L285.1,179.8L280.8,179.6L276.3,179.4L272.1,179.3L267.8,182.0L263.6,181.0L258.0,181.2L253.1,183.9L251.1,187.7L246.9,188.5L244.2,184.4L240.2,180.5L234.4,181.7L230.1,177.5L223.4,175.9L216.3,176.9L210.4,175.2L206.6,174.1L200.7,174.1L195.7,170.5L191.7,169.2L189.0,165.6L186.9,161.8L183.5,157.2L182.6,152.0L182.7,148.0L183.4,143.8L182.1,138.7L186.7,140.1L186.1,135.7L193.3,135.7L200.9,135.7L211.2,135.7L218.8,135.7L226.4,135.7L234.1,135.7L242.8,135.7L251.5,135.7L256.8,135.7L257.7,134.8Z M109.0,116.7L105.1,117.0L110.1,114.9L109.0,116.7Z M76.9,110.2L72.1,109.5L76.6,109.3L76.9,110.2Z M61.1,101.2L66.4,102.0L61.6,102.3L61.1,101.2Z M103.7,84.0L111.0,84.7L117.4,85.4L122.8,86.2L127.7,86.4L133.0,86.3L136.9,87.0L139.7,96.0L139.7,109.3L144.7,110.0L148.7,112.6L153.8,110.5L159.2,113.7L163.4,118.0L167.8,119.5L162.8,120.5L158.7,116.6L150.8,114.2L142.6,111.1L135.6,109.8L127.1,108.9L121.2,108.4L117.4,110.7L112.3,112.0L113.1,108.3L106.4,111.5L103.1,115.3L95.9,118.3L90.4,120.2L85.4,121.6L78.9,123.1L83.8,120.9L89.7,119.3L94.5,117.0L98.7,112.5L93.5,113.7L87.6,113.1L81.4,110.5L77.4,108.8L76.5,105.2L81.5,102.5L87.2,101.9L82.0,99.4L74.7,99.1L70.4,96.8L79.7,94.7L86.8,95.7L81.6,93.4L77.3,91.2L83.0,88.1L88.7,85.6L93.6,84.6L99.8,83.5L103.7,84.0Z M670.0,162.8L664.0,159.3L659.4,156.5L654.5,153.8L649.8,150.2L645.5,152.4L642.9,145.0L649.5,143.6L653.9,145.5L658.5,148.5L665.9,148.0L668.7,152.0L673.7,154.0L679.9,151.8L686.7,154.6L681.5,156.1L677.2,155.0L673.0,157.6L673.3,163.3L670.0,162.8Z M317.7,222.5L315.8,227.0L320.7,223.5L325.6,224.6L330.8,225.2L335.6,225.8L341.9,225.0L345.0,230.0L345.9,233.6L344.8,237.9L339.5,240.7L334.8,240.3L335.8,244.2L332.5,248.2L328.3,244.7L327.2,241.0L327.4,237.0L322.7,235.8L316.1,233.7L314.3,229.9L313.7,225.6L317.7,222.5Z M776.1,199.7L770.6,203.9L772.0,208.0L776.7,212.5L779.4,218.7L779.1,222.8L774.0,225.8L768.7,229.9L766.6,225.5L771.5,224.4L775.0,218.4L774.9,214.5L770.7,209.2L765.5,205.0L763.7,201.5L761.1,197.6L767.0,196.8L772.7,196.8L776.1,199.7Z M928.9,288.4L928.9,288.4Z M927.1,284.8L927.1,284.8Z M590.8,174.4L590.8,174.4Z M635.7,211.1L630.8,214.6L626.7,215.7L622.5,217.3L617.2,218.9L612.9,220.6L609.6,215.5L609.3,211.9L615.6,209.3L619.5,209.7L625.5,206.6L632.9,205.7L634.9,209.5L635.7,211.1Z M580.6,318.3L576.8,322.7L572.1,326.5L567.5,328.4L563.1,329.3L558.7,329.1L552.9,330.3L548.2,330.4L545.8,326.1L544.9,321.7L541.8,316.7L547.2,317.8L550.8,307.8L552.8,311.8L557.7,310.6L561.9,309.9L565.8,308.7L569.3,305.0L575.2,301.5L579.7,301.9L581.6,306.9L579.1,310.7L583.9,312.4L583.0,316.0L580.6,318.3Z M583.7,271.5L585.1,275.2L585.1,279.0L584.9,282.6L577.1,284.5L573.7,288.2L569.1,291.9L564.6,291.4L559.3,290.9L556.1,280.1L561.4,280.1L561.4,276.2L565.8,277.5L570.0,278.3L573.9,280.9L572.8,275.2L572.7,271.4L577.6,269.2L582.3,270.8L583.7,271.5Z M579.7,301.9L575.2,301.5L570.9,298.7L566.9,295.0L564.6,291.4L569.1,291.9L573.7,288.2L577.5,287.1L581.4,288.1L583.9,292.0L583.8,296.0L579.7,301.9Z" fill="#1E293B" stroke="none"/>
  <defs>
    <filter id="glow" x="-50%" y="-50%" width="200%" height="200%">
      <feGaussianBlur stdDeviation="4" result="blur"/>
      <feMerge><feMergeNode in="blur"/><feMergeNode in="SourceGraphic"/></feMerge>
    </filter>
  </defs>
  <circle cx="248.27777777777777" cy="157.13333333333333" r="34.040305361364105" fill="#3B82F6" opacity="0.15"/>
  <circle cx="248.27777777777777" cy="157.13333333333333" r="31.040305361364105" fill="#3B82F6" opacity="0.85" filter="url(#glow)"/>
  <text x="293.27777777777777" y="126.09302797196922" text-anchor="start" fill="#CBD5E1" font-family="system-ui, -apple-system, sans-serif" font-size="10" font-weight="500">US 27,184</text>
  <circle cx="566.4444444444445" cy="100.66666666666666" r="24.82089906959035" fill="#8B5CF6" opacity="0.15"/>
  <circle cx="566.4444444444445" cy="100.66666666666666" r="21.82089906959035" fill="#8B5CF6" opacity="0.85" filter="url(#glow)"/>
  <text x="566.4444444444445" y="95.8457675970763" text-anchor="middle" fill="#CBD5E1" font-family="system-ui, -apple-system, sans-serif" font-size="10" font-weight="500">FI 1,309</text>
  <circle cx="229.11111111111111" cy="119.33333333333333" r="24.78118967416276" fill="#EF4444" opacity="0.15"/>
  <circle cx="229.11111111111111" cy="119.33333333333333" r="21.78118967416276" fill="#EF4444" opacity="0.85" filter="url(#glow)"/>
  <text x="229.11111111111111" y="116.55214365917057" text-anchor="middle" fill="#CBD5E1" font-family="system-ui, -apple-system, sans-serif" font-size="10" font-weight="500">CA 1,292</text>
  <circle cx="791.8444444444444" cy="197.96666666666667" r="23.98781536896589" fill="#F59E0B" opacity="0.15"/>
  <circle cx="791.8444444444444" cy="197.96666666666667" r="20.98781536896589" fill="#F59E0B" opacity="0.85" filter="url(#glow)"/>
  <text x="791.8444444444444" y="151.97885129770077" text-anchor="middle" fill="#CBD5E1" font-family="system-ui, -apple-system, sans-serif" font-size="10" font-weight="500">HK 995</text>
  <circle cx="494.8888888888889" cy="124" r="21.39872251035218" fill="#10B981" opacity="0.15"/>
  <circle cx="494.8888888888889" cy="124" r="18.39872251035218" fill="#10B981" opacity="0.85" filter="url(#glow)"/>
  <text x="494.8888888888889" y="80.60127748964783" text-anchor="middle" fill="#CBD5E1" font-family="system-ui, -apple-system, sans-serif" font-size="10" font-weight="500">GB 424</text>
  <circle cx="944.6666666666666" cy="345.66666666666663" r="19.773395429670153" fill="#06B6D4" opacity="0.15"/>
  <circle cx="944.6666666666666" cy="345.66666666666663" r="16.773395429670153" fill="#06B6D4" opacity="0.85" filter="url(#glow)"/>
  <text x="944.6666666666666" y="345.8932712369965" text-anchor="middle" fill="#CBD5E1" font-family="system-ui, -apple-system, sans-serif" font-size="10" font-weight="500">NZ 248</text>
  <circle cx="842.4444444444445" cy="308.3333333333333" r="19.761161765783516" fill="#F97316" opacity="0.15"/>
  <circle cx="842.4444444444445" cy="308.3333333333333" r="16.761161765783516" fill="#F97316" opacity="0.85" filter="url(#glow)"/>
  <text x="842.4444444444445" y="286.5721715675498" text-anchor="middle" fill="#CBD5E1" font-family="system-ui, -apple-system, sans-serif" font-size="10" font-weight="500">AU 247</text>
  <circle cx="379.8888888888889" cy="285" r="18.447781132222946" fill="#22C55E" opacity="0.15"/>
  <circle cx="379.8888888888889" cy="285" r="15.447781132222946" fill="#22C55E" opacity="0.85" filter="url(#glow)"/>
  <text x="379.8888888888889" y="264.55221886777707" text-anchor="middle" fill="#CBD5E1" font-family="system-ui, -apple-system, sans-serif" font-size="10" font-weight="500">BR 160</text>
  <circle cx="852.6666666666666" cy="166" r="16.96944636218285" fill="#EC4899" opacity="0.15"/>
  <circle cx="852.6666666666666" cy="166" r="13.969446362182849" fill="#EC4899" opacity="0.85" filter="url(#glow)"/>
  <text x="852.6666666666666" y="169.03055363781715" text-anchor="middle" fill="#CBD5E1" font-family="system-ui, -apple-system, sans-serif" font-size="10" font-weight="500">JP 98</text>
  <circle cx="765.2666666666667" cy="246.96666666666667" r="16.713289746247654" fill="#A855F7" opacity="0.15"/>
  <circle cx="765.2666666666667" cy="246.96666666666667" r="13.713289746247655" fill="#A855F7" opacity="0.85" filter="url(#glow)"/>
  <text x="765.2666666666667" y="248.25337692041902" text-anchor="middle" fill="#CBD5E1" font-family="system-ui, -apple-system, sans-serif" font-size="10" font-weight="500">SG 90</text>
  <circle cx="474.44444444444446" cy="125.63333333333334" r="14.892790030352131" fill="#14B8A6" opacity="0.15"/>
  <circle cx="474.44444444444446" cy="125.63333333333334" r="11.892790030352131" fill="#14B8A6" opacity="0.85" filter="url(#glow)"/>
  <text x="444.44444444444446" y="94.74054330298121" text-anchor="end" fill="#CBD5E1" font-family="system-ui, -apple-system, sans-serif" font-size="10" font-weight="500">IE 49</text>
  <text x="500" y="24" text-anchor="middle" fill="#F1F5F9" font-family="system-ui, -apple-system, sans-serif" font-size="14" font-weight="700" letter-spacing="0.5">Open Eagle Eye -- Global Camera Coverage</text>
  <text x="500" y="490" text-anchor="middle" fill="#64748B" font-family="system-ui, -apple-system, sans-serif" font-size="11">32,096 cameras across 11 countries</text>
</svg>